# xmcd
#
# Track frame offsets:
#       151
#       6350
#       15987
#       23593
#       42233
#       54129
#
# Disc length: 829 seconds
#
# Revision: 0
# Processed by: cddbd v1.4PL0 Copyright (c) Steve Scherf et al.
# Submitted via: CD-DA_X-Tractor v0.21
#
DISCID=34033b06
DTITLE=Zoë Lambert - Personal Belongings
DYEAR=1900
DGENRE=
TTITLE0=Northbound Train
TTITLE1=The Doncaster Song
TTITLE2=Lost Property
TTITLE3=Straight Line
TTITLE4=Keep a Hold of your Stuff
TTITLE5=Close Strangers
EXTD=
EXTT0=
EXTT1=
EXTT2=
EXTT3=
EXTT4=
EXTT5=
PLAYORDER=
